# xmcd
#
# Track frame offsets:
#	150
#	4875
#	19650
#	33750
#	50100
#	69150
#	87785
#	103685
#	119210
#	138110
#	153635
#
# Disc length: 2250 seconds
#
# Revision: 2
# Processed by: cddbd v1.5.2PL0 Copyright (c) Steve Scherf et al.
# Submitted via: Jack! The Knife
#
DISCID=8b08c80b
DTITLE=Celtic Frost - Cold Lake
DYEAR=1988
DGENRE=Heavy Metal
TTITLE0=Human (Intro)
TTITLE1=Seduce Me Tonight
TTITLE2=Petty Obsession
TTITLE3=(Once) They Were Eagles
TTITLE4=Cherry Orchards
TTITLE5=Juices Like Wine
TTITLE6=Little Velvet
TTITLE7=Blood On Kisses
TTITLE8=Downtown Hanoi
TTITLE9=Dance Sleazy
TTITLE10=Roses Without Thorns
EXTD=
EXTT0=
EXTT1=
EXTT2=
EXTT3=
EXTT4=
EXTT5=
EXTT6=
EXTT7=
EXTT8=
EXTT9=
EXTT10=
PLAYORDER=
